<mxfile host="app.diagrams.net" agent="Mozilla/5.0 (Windows NT 10.0; Win64; x64) AppleWebKit/537.36 (KHTML, like Gecko) Chrome/134.0.0.0 Safari/537.36" version="26.1.0">
  <diagram id="C5RBs43oDa-KdzZeNtuy" name="Page-1">
    <mxGraphModel dx="1372" dy="820" grid="1" gridSize="10" guides="1" tooltips="1" connect="1" arrows="1" fold="1" page="1" pageScale="1" pageWidth="827" pageHeight="1169" math="0" shadow="0">
      <root>
        <mxCell id="WIyWlLk6GJQsqaUBKTNV-0" />
        <mxCell id="WIyWlLk6GJQsqaUBKTNV-1" parent="WIyWlLk6GJQsqaUBKTNV-0" />
        <mxCell id="WIyWlLk6GJQsqaUBKTNV-3" value="Verificar Si el cliente existe" style="rounded=1;whiteSpace=wrap;html=1;fontSize=12;glass=0;strokeWidth=1;shadow=0;" parent="WIyWlLk6GJQsqaUBKTNV-1" vertex="1">
          <mxGeometry x="198" y="111" width="120" height="50" as="geometry" />
        </mxCell>
        <mxCell id="0324agIAZtzZzPBgsNAj-2" value="" style="edgeStyle=none;curved=1;rounded=0;orthogonalLoop=1;jettySize=auto;html=1;fontSize=12;startSize=8;endSize=8;" parent="WIyWlLk6GJQsqaUBKTNV-1" source="WIyWlLk6GJQsqaUBKTNV-6" target="0324agIAZtzZzPBgsNAj-1" edge="1">
          <mxGeometry relative="1" as="geometry" />
        </mxCell>
        <mxCell id="0324agIAZtzZzPBgsNAj-11" value="SI" style="edgeLabel;html=1;align=center;verticalAlign=middle;resizable=0;points=[];fontSize=12;" parent="0324agIAZtzZzPBgsNAj-2" vertex="1" connectable="0">
          <mxGeometry x="-0.0154" y="-3" relative="1" as="geometry">
            <mxPoint as="offset" />
          </mxGeometry>
        </mxCell>
        <mxCell id="0324agIAZtzZzPBgsNAj-14" value="" style="edgeStyle=none;curved=1;rounded=0;orthogonalLoop=1;jettySize=auto;html=1;fontSize=12;startSize=8;endSize=8;" parent="WIyWlLk6GJQsqaUBKTNV-1" source="WIyWlLk6GJQsqaUBKTNV-6" target="0324agIAZtzZzPBgsNAj-13" edge="1">
          <mxGeometry relative="1" as="geometry" />
        </mxCell>
        <mxCell id="nhj914CTV_CS5lF1dxJm-9" value="NO" style="edgeLabel;html=1;align=center;verticalAlign=middle;resizable=0;points=[];fontSize=12;" parent="0324agIAZtzZzPBgsNAj-14" vertex="1" connectable="0">
          <mxGeometry x="0.0224" y="3" relative="1" as="geometry">
            <mxPoint as="offset" />
          </mxGeometry>
        </mxCell>
        <mxCell id="WIyWlLk6GJQsqaUBKTNV-6" value="El cliente existe?" style="rhombus;whiteSpace=wrap;html=1;shadow=0;fontFamily=Helvetica;fontSize=12;align=center;strokeWidth=1;spacing=6;spacingTop=-4;" parent="WIyWlLk6GJQsqaUBKTNV-1" vertex="1">
          <mxGeometry x="395" y="201" width="100" height="60" as="geometry" />
        </mxCell>
        <mxCell id="BOVRHx7QbLtc-t8j4IWU-83" value="" style="edgeStyle=orthogonalEdgeStyle;rounded=0;orthogonalLoop=1;jettySize=auto;html=1;" parent="WIyWlLk6GJQsqaUBKTNV-1" source="XJ94rQwBPtHOfbt7iacn-0" target="0324agIAZtzZzPBgsNAj-19" edge="1">
          <mxGeometry relative="1" as="geometry" />
        </mxCell>
        <mxCell id="BOVRHx7QbLtc-t8j4IWU-101" style="edgeStyle=orthogonalEdgeStyle;rounded=0;orthogonalLoop=1;jettySize=auto;html=1;exitX=0.75;exitY=1;exitDx=0;exitDy=0;entryX=0.5;entryY=0;entryDx=0;entryDy=0;" parent="WIyWlLk6GJQsqaUBKTNV-1" source="XJ94rQwBPtHOfbt7iacn-0" target="BOVRHx7QbLtc-t8j4IWU-90" edge="1">
          <mxGeometry relative="1" as="geometry" />
        </mxCell>
        <mxCell id="XJ94rQwBPtHOfbt7iacn-0" value="&lt;font style=&quot;font-size: 18px;&quot;&gt;CREAR TICKET&lt;/font&gt;" style="text;html=1;align=center;verticalAlign=middle;whiteSpace=wrap;rounded=0;" parent="WIyWlLk6GJQsqaUBKTNV-1" vertex="1">
          <mxGeometry x="535" y="21" width="140" height="40" as="geometry" />
        </mxCell>
        <mxCell id="0324agIAZtzZzPBgsNAj-0" style="edgeStyle=none;curved=1;rounded=0;orthogonalLoop=1;jettySize=auto;html=1;exitX=0.5;exitY=1;exitDx=0;exitDy=0;fontSize=12;startSize=8;endSize=8;" parent="WIyWlLk6GJQsqaUBKTNV-1" source="0324agIAZtzZzPBgsNAj-21" target="WIyWlLk6GJQsqaUBKTNV-6" edge="1">
          <mxGeometry relative="1" as="geometry">
            <mxPoint x="476" y="226" as="sourcePoint" />
          </mxGeometry>
        </mxCell>
        <mxCell id="nhj914CTV_CS5lF1dxJm-17" value="" style="edgeStyle=none;curved=1;rounded=0;orthogonalLoop=1;jettySize=auto;html=1;fontSize=12;startSize=8;endSize=8;" parent="WIyWlLk6GJQsqaUBKTNV-1" source="0324agIAZtzZzPBgsNAj-1" target="nhj914CTV_CS5lF1dxJm-4" edge="1">
          <mxGeometry relative="1" as="geometry" />
        </mxCell>
        <mxCell id="0324agIAZtzZzPBgsNAj-1" value="Mostrar Informacion del cliente" style="whiteSpace=wrap;html=1;shadow=0;strokeWidth=1;spacing=6;spacingTop=-4;" parent="WIyWlLk6GJQsqaUBKTNV-1" vertex="1">
          <mxGeometry x="225" y="266" width="120" height="60" as="geometry" />
        </mxCell>
        <mxCell id="0324agIAZtzZzPBgsNAj-10" style="edgeStyle=none;curved=1;rounded=0;orthogonalLoop=1;jettySize=auto;html=1;exitX=1;exitY=0.5;exitDx=0;exitDy=0;entryX=0;entryY=0.5;entryDx=0;entryDy=0;fontSize=12;startSize=8;endSize=8;" parent="WIyWlLk6GJQsqaUBKTNV-1" source="WIyWlLk6GJQsqaUBKTNV-3" target="0324agIAZtzZzPBgsNAj-21" edge="1">
          <mxGeometry relative="1" as="geometry">
            <mxPoint x="408" y="181" as="targetPoint" />
          </mxGeometry>
        </mxCell>
        <mxCell id="0324agIAZtzZzPBgsNAj-13" value="&lt;font style=&quot;font-size: 18px;&quot;&gt;Concluir Solicitud&lt;/font&gt;" style="rounded=1;whiteSpace=wrap;html=1;shadow=0;strokeWidth=1;spacing=6;spacingTop=-4;strokeColor=none;" parent="WIyWlLk6GJQsqaUBKTNV-1" vertex="1">
          <mxGeometry x="375" y="290" width="150" height="60" as="geometry" />
        </mxCell>
        <mxCell id="nhj914CTV_CS5lF1dxJm-0" style="edgeStyle=none;curved=1;rounded=0;orthogonalLoop=1;jettySize=auto;html=1;fontSize=12;startSize=8;endSize=8;entryX=1;entryY=0.75;entryDx=0;entryDy=0;" parent="WIyWlLk6GJQsqaUBKTNV-1" source="0324agIAZtzZzPBgsNAj-19" target="nhj914CTV_CS5lF1dxJm-1" edge="1">
          <mxGeometry relative="1" as="geometry">
            <mxPoint x="315" y="41" as="targetPoint" />
          </mxGeometry>
        </mxCell>
        <mxCell id="0324agIAZtzZzPBgsNAj-19" value="" style="shape=actor;whiteSpace=wrap;html=1;" parent="WIyWlLk6GJQsqaUBKTNV-1" vertex="1">
          <mxGeometry x="415" y="11" width="60" height="60" as="geometry" />
        </mxCell>
        <mxCell id="0324agIAZtzZzPBgsNAj-21" value="&lt;span style=&quot;color: rgb(0, 0, 0); font-family: Helvetica; font-size: 12px; font-style: normal; font-variant-ligatures: normal; font-variant-caps: normal; font-weight: 400; letter-spacing: normal; orphans: 2; text-align: center; text-indent: 0px; text-transform: none; widows: 2; word-spacing: 0px; -webkit-text-stroke-width: 0px; white-space: normal; background-color: rgb(251, 251, 251); text-decoration-thickness: initial; text-decoration-style: initial; text-decoration-color: initial; float: none; display: inline !important;&quot;&gt;&lt;br&gt;clie_tblclientepotencial&lt;/span&gt;&lt;div&gt;&lt;br/&gt;&lt;/div&gt;" style="shape=datastore;whiteSpace=wrap;html=1;" parent="WIyWlLk6GJQsqaUBKTNV-1" vertex="1">
          <mxGeometry x="411" y="106" width="64" height="60" as="geometry" />
        </mxCell>
        <mxCell id="nhj914CTV_CS5lF1dxJm-3" style="edgeStyle=none;curved=1;rounded=0;orthogonalLoop=1;jettySize=auto;html=1;exitX=0.5;exitY=1;exitDx=0;exitDy=0;entryX=0.5;entryY=0;entryDx=0;entryDy=0;fontSize=12;startSize=8;endSize=8;" parent="WIyWlLk6GJQsqaUBKTNV-1" source="nhj914CTV_CS5lF1dxJm-1" target="WIyWlLk6GJQsqaUBKTNV-3" edge="1">
          <mxGeometry relative="1" as="geometry" />
        </mxCell>
        <mxCell id="nhj914CTV_CS5lF1dxJm-1" value="RIF" style="shape=parallelogram;html=1;strokeWidth=2;perimeter=parallelogramPerimeter;whiteSpace=wrap;rounded=1;arcSize=12;size=0.23;" parent="WIyWlLk6GJQsqaUBKTNV-1" vertex="1">
          <mxGeometry x="208" y="1" width="100" height="60" as="geometry" />
        </mxCell>
        <mxCell id="nhj914CTV_CS5lF1dxJm-18" style="edgeStyle=none;curved=1;rounded=0;orthogonalLoop=1;jettySize=auto;html=1;exitX=0.5;exitY=1;exitDx=0;exitDy=0;entryX=0.5;entryY=0;entryDx=0;entryDy=0;fontSize=12;startSize=8;endSize=8;" parent="WIyWlLk6GJQsqaUBKTNV-1" source="nhj914CTV_CS5lF1dxJm-4" target="nhj914CTV_CS5lF1dxJm-5" edge="1">
          <mxGeometry relative="1" as="geometry" />
        </mxCell>
        <mxCell id="nhj914CTV_CS5lF1dxJm-4" value="" style="shape=actor;whiteSpace=wrap;html=1;" parent="WIyWlLk6GJQsqaUBKTNV-1" vertex="1">
          <mxGeometry x="85" y="266" width="60" height="70" as="geometry" />
        </mxCell>
        <mxCell id="nhj914CTV_CS5lF1dxJm-19" style="edgeStyle=none;curved=1;rounded=0;orthogonalLoop=1;jettySize=auto;html=1;exitX=1;exitY=0.5;exitDx=0;exitDy=0;entryX=0;entryY=0.5;entryDx=0;entryDy=0;fontSize=12;startSize=8;endSize=8;" parent="WIyWlLk6GJQsqaUBKTNV-1" source="nhj914CTV_CS5lF1dxJm-5" target="nhj914CTV_CS5lF1dxJm-13" edge="1">
          <mxGeometry relative="1" as="geometry" />
        </mxCell>
        <mxCell id="nhj914CTV_CS5lF1dxJm-5" value="Serial del POS" style="shape=parallelogram;perimeter=parallelogramPerimeter;whiteSpace=wrap;html=1;fixedSize=1;" parent="WIyWlLk6GJQsqaUBKTNV-1" vertex="1">
          <mxGeometry x="55" y="381" width="120" height="60" as="geometry" />
        </mxCell>
        <mxCell id="BOVRHx7QbLtc-t8j4IWU-8" value="" style="edgeStyle=orthogonalEdgeStyle;rounded=0;orthogonalLoop=1;jettySize=auto;html=1;" parent="WIyWlLk6GJQsqaUBKTNV-1" source="nhj914CTV_CS5lF1dxJm-13" target="BOVRHx7QbLtc-t8j4IWU-7" edge="1">
          <mxGeometry relative="1" as="geometry" />
        </mxCell>
        <mxCell id="nhj914CTV_CS5lF1dxJm-13" value="Verificar el Serial del POS" style="whiteSpace=wrap;html=1;shadow=0;strokeWidth=1;spacing=6;spacingTop=-4;" parent="WIyWlLk6GJQsqaUBKTNV-1" vertex="1">
          <mxGeometry x="215" y="381" width="120" height="60" as="geometry" />
        </mxCell>
        <mxCell id="BOVRHx7QbLtc-t8j4IWU-30" value="" style="edgeStyle=orthogonalEdgeStyle;rounded=0;orthogonalLoop=1;jettySize=auto;html=1;" parent="WIyWlLk6GJQsqaUBKTNV-1" source="nhj914CTV_CS5lF1dxJm-20" target="BOVRHx7QbLtc-t8j4IWU-38" edge="1">
          <mxGeometry relative="1" as="geometry">
            <mxPoint x="649" y="591" as="targetPoint" />
          </mxGeometry>
        </mxCell>
        <mxCell id="nhj914CTV_CS5lF1dxJm-20" value="Clasificar falla" style="whiteSpace=wrap;html=1;" parent="WIyWlLk6GJQsqaUBKTNV-1" vertex="1">
          <mxGeometry x="575" y="401" width="120" height="60" as="geometry" />
        </mxCell>
        <mxCell id="BOVRHx7QbLtc-t8j4IWU-12" style="edgeStyle=orthogonalEdgeStyle;rounded=0;orthogonalLoop=1;jettySize=auto;html=1;exitX=0.5;exitY=1;exitDx=0;exitDy=0;" parent="WIyWlLk6GJQsqaUBKTNV-1" source="BOVRHx7QbLtc-t8j4IWU-0" target="BOVRHx7QbLtc-t8j4IWU-13" edge="1">
          <mxGeometry relative="1" as="geometry">
            <mxPoint x="525" y="511" as="targetPoint" />
          </mxGeometry>
        </mxCell>
        <mxCell id="BOVRHx7QbLtc-t8j4IWU-15" value="NO" style="edgeLabel;html=1;align=center;verticalAlign=middle;resizable=0;points=[];" parent="BOVRHx7QbLtc-t8j4IWU-12" vertex="1" connectable="0">
          <mxGeometry x="-0.4286" relative="1" as="geometry">
            <mxPoint as="offset" />
          </mxGeometry>
        </mxCell>
        <mxCell id="BOVRHx7QbLtc-t8j4IWU-153" style="edgeStyle=orthogonalEdgeStyle;rounded=0;orthogonalLoop=1;jettySize=auto;html=1;exitX=0.5;exitY=0;exitDx=0;exitDy=0;entryX=0.25;entryY=1;entryDx=0;entryDy=0;" parent="WIyWlLk6GJQsqaUBKTNV-1" source="BOVRHx7QbLtc-t8j4IWU-0" target="XJ94rQwBPtHOfbt7iacn-0" edge="1">
          <mxGeometry relative="1" as="geometry">
            <Array as="points">
              <mxPoint x="535" y="371" />
              <mxPoint x="535" y="216" />
              <mxPoint x="570" y="216" />
            </Array>
          </mxGeometry>
        </mxCell>
        <mxCell id="BOVRHx7QbLtc-t8j4IWU-155" value="SI" style="edgeLabel;html=1;align=center;verticalAlign=middle;resizable=0;points=[];" parent="BOVRHx7QbLtc-t8j4IWU-153" vertex="1" connectable="0">
          <mxGeometry x="-0.8592" relative="1" as="geometry">
            <mxPoint as="offset" />
          </mxGeometry>
        </mxCell>
        <mxCell id="BOVRHx7QbLtc-t8j4IWU-0" value="El POS pertenece el cliente?" style="rhombus;whiteSpace=wrap;html=1;" parent="WIyWlLk6GJQsqaUBKTNV-1" vertex="1">
          <mxGeometry x="485" y="371" width="80" height="80" as="geometry" />
        </mxCell>
        <mxCell id="BOVRHx7QbLtc-t8j4IWU-6" value="" style="edgeStyle=orthogonalEdgeStyle;rounded=0;orthogonalLoop=1;jettySize=auto;html=1;" parent="WIyWlLk6GJQsqaUBKTNV-1" source="BOVRHx7QbLtc-t8j4IWU-3" target="BOVRHx7QbLtc-t8j4IWU-5" edge="1">
          <mxGeometry relative="1" as="geometry" />
        </mxCell>
        <mxCell id="BOVRHx7QbLtc-t8j4IWU-3" value="" style="shape=actor;whiteSpace=wrap;html=1;" parent="WIyWlLk6GJQsqaUBKTNV-1" vertex="1">
          <mxGeometry x="635" y="231" width="60" height="70" as="geometry" />
        </mxCell>
        <mxCell id="BOVRHx7QbLtc-t8j4IWU-14" value="" style="edgeStyle=orthogonalEdgeStyle;rounded=0;orthogonalLoop=1;jettySize=auto;html=1;" parent="WIyWlLk6GJQsqaUBKTNV-1" source="BOVRHx7QbLtc-t8j4IWU-5" target="nhj914CTV_CS5lF1dxJm-20" edge="1">
          <mxGeometry relative="1" as="geometry" />
        </mxCell>
        <mxCell id="BOVRHx7QbLtc-t8j4IWU-151" style="edgeStyle=orthogonalEdgeStyle;rounded=0;orthogonalLoop=1;jettySize=auto;html=1;exitX=0.75;exitY=0;exitDx=0;exitDy=0;entryX=1;entryY=0.5;entryDx=0;entryDy=0;" parent="WIyWlLk6GJQsqaUBKTNV-1" source="BOVRHx7QbLtc-t8j4IWU-5" target="BOVRHx7QbLtc-t8j4IWU-90" edge="1">
          <mxGeometry relative="1" as="geometry" />
        </mxCell>
        <mxCell id="BOVRHx7QbLtc-t8j4IWU-5" value="Descripcion de&amp;nbsp;&lt;div&gt;&lt;span style=&quot;background-color: transparent; color: light-dark(rgb(0, 0, 0), rgb(255, 255, 255));&quot;&gt;falla&lt;/span&gt;&lt;/div&gt;" style="shape=parallelogram;perimeter=parallelogramPerimeter;whiteSpace=wrap;html=1;fixedSize=1;" parent="WIyWlLk6GJQsqaUBKTNV-1" vertex="1">
          <mxGeometry x="705" y="321" width="120" height="60" as="geometry" />
        </mxCell>
        <mxCell id="BOVRHx7QbLtc-t8j4IWU-9" value="" style="edgeStyle=orthogonalEdgeStyle;rounded=0;orthogonalLoop=1;jettySize=auto;html=1;" parent="WIyWlLk6GJQsqaUBKTNV-1" source="BOVRHx7QbLtc-t8j4IWU-7" target="BOVRHx7QbLtc-t8j4IWU-0" edge="1">
          <mxGeometry relative="1" as="geometry" />
        </mxCell>
        <mxCell id="BOVRHx7QbLtc-t8j4IWU-7" value="tblinventariopos" style="shape=datastore;whiteSpace=wrap;html=1;" parent="WIyWlLk6GJQsqaUBKTNV-1" vertex="1">
          <mxGeometry x="375" y="381" width="64" height="60" as="geometry" />
        </mxCell>
        <mxCell id="BOVRHx7QbLtc-t8j4IWU-13" value="&lt;font style=&quot;font-size: 18px;&quot;&gt;Concluir&amp;nbsp;Solicitud&lt;/font&gt;" style="rounded=1;whiteSpace=wrap;html=1;shadow=0;strokeWidth=1;spacing=6;spacingTop=-4;strokeColor=none;" parent="WIyWlLk6GJQsqaUBKTNV-1" vertex="1">
          <mxGeometry x="455" y="485.5" width="140" height="60" as="geometry" />
        </mxCell>
        <mxCell id="edYsL3Y-Yg80JSXNaPC0-5" style="edgeStyle=orthogonalEdgeStyle;rounded=0;orthogonalLoop=1;jettySize=auto;html=1;exitX=0;exitY=0.5;exitDx=0;exitDy=0;entryX=1;entryY=0.5;entryDx=0;entryDy=0;" edge="1" parent="WIyWlLk6GJQsqaUBKTNV-1" source="BOVRHx7QbLtc-t8j4IWU-23" target="BOVRHx7QbLtc-t8j4IWU-24">
          <mxGeometry relative="1" as="geometry" />
        </mxCell>
        <mxCell id="BOVRHx7QbLtc-t8j4IWU-23" value="Fecha de Instalacion" style="shape=datastore;whiteSpace=wrap;html=1;" parent="WIyWlLk6GJQsqaUBKTNV-1" vertex="1">
          <mxGeometry x="365" y="531" width="64" height="60" as="geometry" />
        </mxCell>
        <mxCell id="edYsL3Y-Yg80JSXNaPC0-6" style="edgeStyle=orthogonalEdgeStyle;rounded=0;orthogonalLoop=1;jettySize=auto;html=1;exitX=0.5;exitY=1;exitDx=0;exitDy=0;" edge="1" parent="WIyWlLk6GJQsqaUBKTNV-1" source="BOVRHx7QbLtc-t8j4IWU-24" target="BOVRHx7QbLtc-t8j4IWU-26">
          <mxGeometry relative="1" as="geometry" />
        </mxCell>
        <mxCell id="BOVRHx7QbLtc-t8j4IWU-24" value="Validar las garantias" style="whiteSpace=wrap;html=1;" parent="WIyWlLk6GJQsqaUBKTNV-1" vertex="1">
          <mxGeometry x="170" y="461" width="120" height="60" as="geometry" />
        </mxCell>
        <mxCell id="BOVRHx7QbLtc-t8j4IWU-82" value="" style="edgeStyle=orthogonalEdgeStyle;rounded=0;orthogonalLoop=1;jettySize=auto;html=1;" parent="WIyWlLk6GJQsqaUBKTNV-1" source="BOVRHx7QbLtc-t8j4IWU-26" target="BOVRHx7QbLtc-t8j4IWU-81" edge="1">
          <mxGeometry relative="1" as="geometry" />
        </mxCell>
        <mxCell id="BOVRHx7QbLtc-t8j4IWU-139" style="edgeStyle=orthogonalEdgeStyle;rounded=0;orthogonalLoop=1;jettySize=auto;html=1;exitX=0.75;exitY=1;exitDx=0;exitDy=0;entryX=0.5;entryY=0;entryDx=0;entryDy=0;" parent="WIyWlLk6GJQsqaUBKTNV-1" source="BOVRHx7QbLtc-t8j4IWU-26" target="BOVRHx7QbLtc-t8j4IWU-134" edge="1">
          <mxGeometry relative="1" as="geometry" />
        </mxCell>
        <mxCell id="BOVRHx7QbLtc-t8j4IWU-26" value="Validar exoneracion y pago ancipidado" style="whiteSpace=wrap;html=1;" parent="WIyWlLk6GJQsqaUBKTNV-1" vertex="1">
          <mxGeometry x="170" y="561" width="120" height="60" as="geometry" />
        </mxCell>
        <mxCell id="BOVRHx7QbLtc-t8j4IWU-43" value="" style="edgeStyle=orthogonalEdgeStyle;rounded=0;orthogonalLoop=1;jettySize=auto;html=1;" parent="WIyWlLk6GJQsqaUBKTNV-1" source="BOVRHx7QbLtc-t8j4IWU-38" target="BOVRHx7QbLtc-t8j4IWU-42" edge="1">
          <mxGeometry relative="1" as="geometry" />
        </mxCell>
        <mxCell id="BOVRHx7QbLtc-t8j4IWU-38" value="Verificar si el usuario es regional" style="whiteSpace=wrap;html=1;" parent="WIyWlLk6GJQsqaUBKTNV-1" vertex="1">
          <mxGeometry x="705" y="481" width="120" height="60" as="geometry" />
        </mxCell>
        <mxCell id="BOVRHx7QbLtc-t8j4IWU-59" style="edgeStyle=orthogonalEdgeStyle;rounded=0;orthogonalLoop=1;jettySize=auto;html=1;exitX=0.5;exitY=1;exitDx=0;exitDy=0;" parent="WIyWlLk6GJQsqaUBKTNV-1" source="BOVRHx7QbLtc-t8j4IWU-42" target="BOVRHx7QbLtc-t8j4IWU-57" edge="1">
          <mxGeometry relative="1" as="geometry" />
        </mxCell>
        <mxCell id="BOVRHx7QbLtc-t8j4IWU-76" value="" style="edgeStyle=orthogonalEdgeStyle;rounded=0;orthogonalLoop=1;jettySize=auto;html=1;" parent="WIyWlLk6GJQsqaUBKTNV-1" source="BOVRHx7QbLtc-t8j4IWU-42" target="BOVRHx7QbLtc-t8j4IWU-23" edge="1">
          <mxGeometry relative="1" as="geometry" />
        </mxCell>
        <mxCell id="BOVRHx7QbLtc-t8j4IWU-42" value="&lt;span style=&quot;color: rgb(0, 0, 0); font-family: Helvetica; font-size: 12px; font-style: normal; font-variant-ligatures: normal; font-variant-caps: normal; font-weight: 400; letter-spacing: normal; orphans: 2; text-align: center; text-indent: 0px; text-transform: none; widows: 2; word-spacing: 0px; -webkit-text-stroke-width: 0px; white-space: normal; background-color: rgb(251, 251, 251); text-decoration-thickness: initial; text-decoration-style: initial; text-decoration-color: initial; float: none; display: inline !important;&quot;&gt;&lt;br&gt;clie_tblclientepotencial&lt;/span&gt;&lt;div&gt;&lt;br/&gt;&lt;/div&gt;" style="shape=datastore;whiteSpace=wrap;html=1;" parent="WIyWlLk6GJQsqaUBKTNV-1" vertex="1">
          <mxGeometry x="591" y="531" width="64" height="60" as="geometry" />
        </mxCell>
        <mxCell id="BOVRHx7QbLtc-t8j4IWU-61" value="" style="edgeStyle=orthogonalEdgeStyle;rounded=0;orthogonalLoop=1;jettySize=auto;html=1;" parent="WIyWlLk6GJQsqaUBKTNV-1" source="BOVRHx7QbLtc-t8j4IWU-57" target="BOVRHx7QbLtc-t8j4IWU-60" edge="1">
          <mxGeometry relative="1" as="geometry" />
        </mxCell>
        <mxCell id="BOVRHx7QbLtc-t8j4IWU-67" value="SI" style="edgeLabel;html=1;align=center;verticalAlign=middle;resizable=0;points=[];" parent="BOVRHx7QbLtc-t8j4IWU-61" vertex="1" connectable="0">
          <mxGeometry x="0.2" y="3" relative="1" as="geometry">
            <mxPoint x="-8" y="-14" as="offset" />
          </mxGeometry>
        </mxCell>
        <mxCell id="BOVRHx7QbLtc-t8j4IWU-73" style="edgeStyle=orthogonalEdgeStyle;rounded=0;orthogonalLoop=1;jettySize=auto;html=1;exitX=1;exitY=0.5;exitDx=0;exitDy=0;" parent="WIyWlLk6GJQsqaUBKTNV-1" source="BOVRHx7QbLtc-t8j4IWU-57" target="BOVRHx7QbLtc-t8j4IWU-72" edge="1">
          <mxGeometry relative="1" as="geometry" />
        </mxCell>
        <mxCell id="BOVRHx7QbLtc-t8j4IWU-109" value="NO" style="edgeLabel;html=1;align=center;verticalAlign=middle;resizable=0;points=[];" parent="BOVRHx7QbLtc-t8j4IWU-73" vertex="1" connectable="0">
          <mxGeometry x="-0.2" y="-4" relative="1" as="geometry">
            <mxPoint as="offset" />
          </mxGeometry>
        </mxCell>
        <mxCell id="BOVRHx7QbLtc-t8j4IWU-57" value="Es regional?" style="rhombus;whiteSpace=wrap;html=1;" parent="WIyWlLk6GJQsqaUBKTNV-1" vertex="1">
          <mxGeometry x="415" y="621" width="80" height="80" as="geometry" />
        </mxCell>
        <mxCell id="BOVRHx7QbLtc-t8j4IWU-119" value="" style="edgeStyle=orthogonalEdgeStyle;rounded=0;orthogonalLoop=1;jettySize=auto;html=1;" parent="WIyWlLk6GJQsqaUBKTNV-1" source="BOVRHx7QbLtc-t8j4IWU-60" target="BOVRHx7QbLtc-t8j4IWU-118" edge="1">
          <mxGeometry relative="1" as="geometry" />
        </mxCell>
        <mxCell id="BOVRHx7QbLtc-t8j4IWU-146" style="edgeStyle=orthogonalEdgeStyle;rounded=0;orthogonalLoop=1;jettySize=auto;html=1;exitX=0.5;exitY=1;exitDx=0;exitDy=0;entryX=0;entryY=0.5;entryDx=0;entryDy=0;" parent="WIyWlLk6GJQsqaUBKTNV-1" source="BOVRHx7QbLtc-t8j4IWU-60" target="BOVRHx7QbLtc-t8j4IWU-143" edge="1">
          <mxGeometry relative="1" as="geometry" />
        </mxCell>
        <mxCell id="BOVRHx7QbLtc-t8j4IWU-60" value="Fechas de&amp;nbsp;&lt;div&gt;recibido&lt;/div&gt;&lt;span style=&quot;background-color: transparent; color: light-dark(rgb(0, 0, 0), rgb(255, 255, 255));&quot;&gt;y enviado&amp;nbsp;&lt;/span&gt;" style="shape=parallelogram;perimeter=parallelogramPerimeter;whiteSpace=wrap;html=1;fixedSize=1;" parent="WIyWlLk6GJQsqaUBKTNV-1" vertex="1">
          <mxGeometry x="395" y="741" width="120" height="60" as="geometry" />
        </mxCell>
        <mxCell id="BOVRHx7QbLtc-t8j4IWU-75" value="" style="edgeStyle=orthogonalEdgeStyle;rounded=0;orthogonalLoop=1;jettySize=auto;html=1;" parent="WIyWlLk6GJQsqaUBKTNV-1" source="BOVRHx7QbLtc-t8j4IWU-72" target="BOVRHx7QbLtc-t8j4IWU-74" edge="1">
          <mxGeometry relative="1" as="geometry" />
        </mxCell>
        <mxCell id="BOVRHx7QbLtc-t8j4IWU-72" value="Resuelve falla via remota" style="whiteSpace=wrap;html=1;" parent="WIyWlLk6GJQsqaUBKTNV-1" vertex="1">
          <mxGeometry x="535" y="631" width="120" height="60" as="geometry" />
        </mxCell>
        <mxCell id="BOVRHx7QbLtc-t8j4IWU-74" value="&lt;font style=&quot;font-size: 18px;&quot;&gt;Cerrar Ticket&lt;/font&gt;" style="rounded=1;whiteSpace=wrap;html=1;strokeColor=none;" parent="WIyWlLk6GJQsqaUBKTNV-1" vertex="1">
          <mxGeometry x="685" y="631" width="120" height="60" as="geometry" />
        </mxCell>
        <mxCell id="BOVRHx7QbLtc-t8j4IWU-158" value="" style="edgeStyle=orthogonalEdgeStyle;rounded=0;orthogonalLoop=1;jettySize=auto;html=1;" parent="WIyWlLk6GJQsqaUBKTNV-1" source="BOVRHx7QbLtc-t8j4IWU-81" target="BOVRHx7QbLtc-t8j4IWU-157" edge="1">
          <mxGeometry relative="1" as="geometry" />
        </mxCell>
        <mxCell id="BOVRHx7QbLtc-t8j4IWU-81" value="Cargar correo de&amp;nbsp;&lt;div&gt;&lt;span style=&quot;background-color: transparent; color: light-dark(rgb(0, 0, 0), rgb(255, 255, 255));&quot;&gt;exoneracion&amp;nbsp;&lt;/span&gt;&lt;/div&gt;&lt;div&gt;&lt;span style=&quot;background-color: transparent; color: light-dark(rgb(0, 0, 0), rgb(255, 255, 255));&quot;&gt;o&amp;nbsp;&lt;/span&gt;&lt;span style=&quot;background-color: transparent; color: light-dark(rgb(0, 0, 0), rgb(255, 255, 255));&quot;&gt;PDF&amp;nbsp;&lt;/span&gt;&lt;span style=&quot;background-color: transparent; color: light-dark(rgb(0, 0, 0), rgb(255, 255, 255));&quot;&gt;del Pago Anticipo&lt;/span&gt;&lt;/div&gt;" style="shape=parallelogram;perimeter=parallelogramPerimeter;whiteSpace=wrap;html=1;fixedSize=1;" parent="WIyWlLk6GJQsqaUBKTNV-1" vertex="1">
          <mxGeometry x="25" y="561" width="135" height="60" as="geometry" />
        </mxCell>
        <mxCell id="BOVRHx7QbLtc-t8j4IWU-106" style="edgeStyle=orthogonalEdgeStyle;rounded=0;orthogonalLoop=1;jettySize=auto;html=1;exitX=0.5;exitY=1;exitDx=0;exitDy=0;entryX=0.5;entryY=0;entryDx=0;entryDy=0;" parent="WIyWlLk6GJQsqaUBKTNV-1" source="BOVRHx7QbLtc-t8j4IWU-90" target="BOVRHx7QbLtc-t8j4IWU-3" edge="1">
          <mxGeometry relative="1" as="geometry" />
        </mxCell>
        <mxCell id="BOVRHx7QbLtc-t8j4IWU-90" value="Tickets" style="shape=datastore;whiteSpace=wrap;html=1;" parent="WIyWlLk6GJQsqaUBKTNV-1" vertex="1">
          <mxGeometry x="635" y="131" width="60" height="60" as="geometry" />
        </mxCell>
        <mxCell id="BOVRHx7QbLtc-t8j4IWU-121" value="" style="edgeStyle=orthogonalEdgeStyle;rounded=0;orthogonalLoop=1;jettySize=auto;html=1;" parent="WIyWlLk6GJQsqaUBKTNV-1" source="BOVRHx7QbLtc-t8j4IWU-118" target="BOVRHx7QbLtc-t8j4IWU-120" edge="1">
          <mxGeometry relative="1" as="geometry" />
        </mxCell>
        <mxCell id="BOVRHx7QbLtc-t8j4IWU-118" value="" style="ellipse;whiteSpace=wrap;html=1;aspect=fixed;fillColor=#000000;" parent="WIyWlLk6GJQsqaUBKTNV-1" vertex="1">
          <mxGeometry x="561" y="756" width="30" height="30" as="geometry" />
        </mxCell>
        <mxCell id="BOVRHx7QbLtc-t8j4IWU-145" style="edgeStyle=orthogonalEdgeStyle;rounded=0;orthogonalLoop=1;jettySize=auto;html=1;exitX=0.5;exitY=1;exitDx=0;exitDy=0;entryX=1;entryY=0.5;entryDx=0;entryDy=0;" parent="WIyWlLk6GJQsqaUBKTNV-1" source="BOVRHx7QbLtc-t8j4IWU-120" target="BOVRHx7QbLtc-t8j4IWU-143" edge="1">
          <mxGeometry relative="1" as="geometry" />
        </mxCell>
        <mxCell id="BOVRHx7QbLtc-t8j4IWU-120" value="Cargar PD&lt;span style=&quot;text-wrap-mode: nowrap; color: rgba(0, 0, 0, 0); font-family: monospace; font-size: 0px; text-align: start;&quot;&gt;%3CmxGraphModel%3E%3Croot%3E%3CmxCell%20id%3D%220%22%2F%3E%3CmxCell%20id%3D%221%22%20parent%3D%220%22%2F%3E%3CmxCell%20id%3D%222%22%20style%3D%22edgeStyle%3DorthogonalEdgeStyle%3Brounded%3D0%3BorthogonalLoop%3D1%3BjettySize%3Dauto%3Bhtml%3D1%3BexitX%3D1%3BexitY%3D0.5%3BexitDx%3D0%3BexitDy%3D0%3BentryX%3D0%3BentryY%3D0.75%3BentryDx%3D0%3BentryDy%3D0%3B%22%20edge%3D%221%22%20parent%3D%221%22%3E%3CmxGeometry%20relative%3D%221%22%20as%3D%22geometry%22%3E%3CmxPoint%20x%3D%22550%22%20y%3D%22470%22%20as%3D%22sourcePoint%22%2F%3E%3CmxPoint%20x%3D%22620%22%20y%3D%22353%22%20as%3D%22targetPoint%22%2F%3E%3CArray%20as%3D%22points%22%3E%3CmxPoint%20x%3D%22550%22%20y%3D%22420%22%2F%3E%3CmxPoint%20x%3D%22585%22%20y%3D%22420%22%2F%3E%3CmxPoint%20x%3D%22585%22%20y%3D%22353%22%2F%3E%3C%2FArray%3E%3C%2FmxGeometry%3E%3C%2FmxCell%3E%3C%2Froot%3E%3C%2FmxGraphModel%3E&lt;/span&gt;F&#39;s de&amp;nbsp;&lt;div&gt;envios de ZOOM&lt;/div&gt;" style="shape=parallelogram;perimeter=parallelogramPerimeter;whiteSpace=wrap;html=1;fixedSize=1;fillColor=none;" parent="WIyWlLk6GJQsqaUBKTNV-1" vertex="1">
          <mxGeometry x="645" y="741" width="120" height="60" as="geometry" />
        </mxCell>
        <mxCell id="BOVRHx7QbLtc-t8j4IWU-132" value="" style="edgeStyle=orthogonalEdgeStyle;rounded=0;orthogonalLoop=1;jettySize=auto;html=1;" parent="WIyWlLk6GJQsqaUBKTNV-1" source="BOVRHx7QbLtc-t8j4IWU-122" target="BOVRHx7QbLtc-t8j4IWU-131" edge="1">
          <mxGeometry relative="1" as="geometry" />
        </mxCell>
        <mxCell id="BOVRHx7QbLtc-t8j4IWU-122" value="Administracion" style="shape=umlActor;verticalLabelPosition=bottom;verticalAlign=top;html=1;outlineConnect=0;" parent="WIyWlLk6GJQsqaUBKTNV-1" vertex="1">
          <mxGeometry x="178" y="651" width="30" height="40" as="geometry" />
        </mxCell>
        <mxCell id="BOVRHx7QbLtc-t8j4IWU-131" value="Verificar Solvencia" style="rounded=0;whiteSpace=wrap;html=1;" parent="WIyWlLk6GJQsqaUBKTNV-1" vertex="1">
          <mxGeometry x="40" y="641" width="105" height="60" as="geometry" />
        </mxCell>
        <mxCell id="BOVRHx7QbLtc-t8j4IWU-173" value="" style="edgeStyle=orthogonalEdgeStyle;rounded=0;orthogonalLoop=1;jettySize=auto;html=1;" parent="WIyWlLk6GJQsqaUBKTNV-1" source="BOVRHx7QbLtc-t8j4IWU-134" target="BOVRHx7QbLtc-t8j4IWU-171" edge="1">
          <mxGeometry relative="1" as="geometry" />
        </mxCell>
        <mxCell id="BOVRHx7QbLtc-t8j4IWU-179" style="edgeStyle=orthogonalEdgeStyle;rounded=0;orthogonalLoop=1;jettySize=auto;html=1;exitX=0.5;exitY=1;exitDx=0;exitDy=0;entryX=1;entryY=0.5;entryDx=0;entryDy=0;" parent="WIyWlLk6GJQsqaUBKTNV-1" source="BOVRHx7QbLtc-t8j4IWU-134" target="BOVRHx7QbLtc-t8j4IWU-177" edge="1">
          <mxGeometry relative="1" as="geometry">
            <mxPoint x="245" y="821" as="targetPoint" />
          </mxGeometry>
        </mxCell>
        <mxCell id="BOVRHx7QbLtc-t8j4IWU-180" style="edgeStyle=orthogonalEdgeStyle;rounded=0;orthogonalLoop=1;jettySize=auto;html=1;exitX=0.75;exitY=1;exitDx=0;exitDy=0;entryX=0.5;entryY=0;entryDx=0;entryDy=0;" parent="WIyWlLk6GJQsqaUBKTNV-1" source="BOVRHx7QbLtc-t8j4IWU-134" target="BOVRHx7QbLtc-t8j4IWU-181" edge="1">
          <mxGeometry relative="1" as="geometry">
            <mxPoint x="287" y="891" as="targetPoint" />
          </mxGeometry>
        </mxCell>
        <mxCell id="BOVRHx7QbLtc-t8j4IWU-134" value="Recepcion a oficina del rosal" style="rounded=0;whiteSpace=wrap;html=1;" parent="WIyWlLk6GJQsqaUBKTNV-1" vertex="1">
          <mxGeometry x="195" y="741" width="123" height="60" as="geometry" />
        </mxCell>
        <mxCell id="BOVRHx7QbLtc-t8j4IWU-136" style="edgeStyle=orthogonalEdgeStyle;rounded=0;orthogonalLoop=1;jettySize=auto;html=1;exitX=0.25;exitY=1;exitDx=0;exitDy=0;entryX=0.5;entryY=0;entryDx=0;entryDy=0;entryPerimeter=0;" parent="WIyWlLk6GJQsqaUBKTNV-1" source="BOVRHx7QbLtc-t8j4IWU-26" target="BOVRHx7QbLtc-t8j4IWU-122" edge="1">
          <mxGeometry relative="1" as="geometry" />
        </mxCell>
        <mxCell id="BOVRHx7QbLtc-t8j4IWU-143" value="ticktes" style="shape=datastore;whiteSpace=wrap;html=1;" parent="WIyWlLk6GJQsqaUBKTNV-1" vertex="1">
          <mxGeometry x="545.5" y="811" width="61" height="60" as="geometry" />
        </mxCell>
        <mxCell id="BOVRHx7QbLtc-t8j4IWU-149" style="edgeStyle=orthogonalEdgeStyle;rounded=0;orthogonalLoop=1;jettySize=auto;html=1;exitX=1;exitY=0.5;exitDx=0;exitDy=0;entryX=0;entryY=0.7;entryDx=0;entryDy=0;" parent="WIyWlLk6GJQsqaUBKTNV-1" source="BOVRHx7QbLtc-t8j4IWU-148" target="BOVRHx7QbLtc-t8j4IWU-143" edge="1">
          <mxGeometry relative="1" as="geometry" />
        </mxCell>
        <mxCell id="BOVRHx7QbLtc-t8j4IWU-148" value="Fecha de envio y recepcion al taller" style="shape=parallelogram;perimeter=parallelogramPerimeter;whiteSpace=wrap;html=1;fixedSize=1;" parent="WIyWlLk6GJQsqaUBKTNV-1" vertex="1">
          <mxGeometry x="337" y="851" width="120" height="60" as="geometry" />
        </mxCell>
        <mxCell id="BOVRHx7QbLtc-t8j4IWU-157" value="ticktes" style="shape=datastore;whiteSpace=wrap;html=1;" parent="WIyWlLk6GJQsqaUBKTNV-1" vertex="1">
          <mxGeometry x="44.5" y="461" width="61" height="60" as="geometry" />
        </mxCell>
        <mxCell id="BOVRHx7QbLtc-t8j4IWU-159" value="Fecha&amp;nbsp; de&amp;nbsp;&lt;div&gt;&lt;span style=&quot;background-color: transparent; color: light-dark(rgb(0, 0, 0), rgb(255, 255, 255));&quot;&gt;recepcion&lt;/span&gt;&lt;/div&gt;" style="shape=parallelogram;perimeter=parallelogramPerimeter;whiteSpace=wrap;html=1;fixedSize=1;" parent="WIyWlLk6GJQsqaUBKTNV-1" vertex="1">
          <mxGeometry x="319" y="931" width="120" height="60" as="geometry" />
        </mxCell>
        <mxCell id="edYsL3Y-Yg80JSXNaPC0-1" style="edgeStyle=orthogonalEdgeStyle;rounded=0;orthogonalLoop=1;jettySize=auto;html=1;exitX=0.25;exitY=0;exitDx=0;exitDy=0;entryX=0;entryY=0.5;entryDx=0;entryDy=0;" edge="1" parent="WIyWlLk6GJQsqaUBKTNV-1" source="BOVRHx7QbLtc-t8j4IWU-164" target="BOVRHx7QbLtc-t8j4IWU-157">
          <mxGeometry relative="1" as="geometry" />
        </mxCell>
        <mxCell id="BOVRHx7QbLtc-t8j4IWU-164" value="Verificar Estatus del taller" style="rounded=0;whiteSpace=wrap;html=1;" parent="WIyWlLk6GJQsqaUBKTNV-1" vertex="1">
          <mxGeometry y="741" width="68" height="60" as="geometry" />
        </mxCell>
        <mxCell id="BOVRHx7QbLtc-t8j4IWU-175" style="edgeStyle=orthogonalEdgeStyle;rounded=0;orthogonalLoop=1;jettySize=auto;html=1;exitX=1;exitY=0.5;exitDx=0;exitDy=0;entryX=0;entryY=0.5;entryDx=0;entryDy=0;" parent="WIyWlLk6GJQsqaUBKTNV-1" source="BOVRHx7QbLtc-t8j4IWU-171" target="BOVRHx7QbLtc-t8j4IWU-60" edge="1">
          <mxGeometry relative="1" as="geometry" />
        </mxCell>
        <mxCell id="BOVRHx7QbLtc-t8j4IWU-171" value="" style="ellipse;whiteSpace=wrap;html=1;aspect=fixed;fillColor=#000000;" parent="WIyWlLk6GJQsqaUBKTNV-1" vertex="1">
          <mxGeometry x="345" y="756" width="30" height="30" as="geometry" />
        </mxCell>
        <mxCell id="BOVRHx7QbLtc-t8j4IWU-177" value="Seleccioanr los componentes con lo que llego el POS" style="whiteSpace=wrap;html=1;" parent="WIyWlLk6GJQsqaUBKTNV-1" vertex="1">
          <mxGeometry x="78" y="820" width="120" height="60" as="geometry" />
        </mxCell>
        <mxCell id="BOVRHx7QbLtc-t8j4IWU-188" style="edgeStyle=orthogonalEdgeStyle;rounded=0;orthogonalLoop=1;jettySize=auto;html=1;exitX=1;exitY=0.5;exitDx=0;exitDy=0;entryX=0;entryY=0.5;entryDx=0;entryDy=0;" parent="WIyWlLk6GJQsqaUBKTNV-1" source="BOVRHx7QbLtc-t8j4IWU-181" target="BOVRHx7QbLtc-t8j4IWU-148" edge="1">
          <mxGeometry relative="1" as="geometry">
            <Array as="points">
              <mxPoint x="305" y="951" />
              <mxPoint x="305" y="881" />
            </Array>
          </mxGeometry>
        </mxCell>
        <mxCell id="BOVRHx7QbLtc-t8j4IWU-191" style="edgeStyle=orthogonalEdgeStyle;rounded=0;orthogonalLoop=1;jettySize=auto;html=1;exitX=0.5;exitY=1;exitDx=0;exitDy=0;" parent="WIyWlLk6GJQsqaUBKTNV-1" source="BOVRHx7QbLtc-t8j4IWU-181" target="BOVRHx7QbLtc-t8j4IWU-192" edge="1">
          <mxGeometry relative="1" as="geometry">
            <mxPoint x="225" y="1021" as="targetPoint" />
          </mxGeometry>
        </mxCell>
        <mxCell id="BOVRHx7QbLtc-t8j4IWU-181" value="Envio al taller" style="rounded=0;whiteSpace=wrap;html=1;" parent="WIyWlLk6GJQsqaUBKTNV-1" vertex="1">
          <mxGeometry x="165" y="921" width="120" height="60" as="geometry" />
        </mxCell>
        <mxCell id="BOVRHx7QbLtc-t8j4IWU-185" style="edgeStyle=orthogonalEdgeStyle;rounded=0;orthogonalLoop=1;jettySize=auto;html=1;entryX=0.569;entryY=0.967;entryDx=0;entryDy=0;entryPerimeter=0;" parent="WIyWlLk6GJQsqaUBKTNV-1" source="BOVRHx7QbLtc-t8j4IWU-181" target="BOVRHx7QbLtc-t8j4IWU-164" edge="1">
          <mxGeometry relative="1" as="geometry" />
        </mxCell>
        <mxCell id="BOVRHx7QbLtc-t8j4IWU-196" value="" style="edgeStyle=orthogonalEdgeStyle;rounded=0;orthogonalLoop=1;jettySize=auto;html=1;" parent="WIyWlLk6GJQsqaUBKTNV-1" source="BOVRHx7QbLtc-t8j4IWU-192" target="BOVRHx7QbLtc-t8j4IWU-195" edge="1">
          <mxGeometry relative="1" as="geometry" />
        </mxCell>
        <mxCell id="BOVRHx7QbLtc-t8j4IWU-192" value="Envio de vuelta al rosal" style="rounded=0;whiteSpace=wrap;html=1;" parent="WIyWlLk6GJQsqaUBKTNV-1" vertex="1">
          <mxGeometry x="165" y="1011" width="120" height="60" as="geometry" />
        </mxCell>
        <mxCell id="BOVRHx7QbLtc-t8j4IWU-193" style="edgeStyle=orthogonalEdgeStyle;rounded=0;orthogonalLoop=1;jettySize=auto;html=1;exitX=1;exitY=0.5;exitDx=0;exitDy=0;entryX=0.442;entryY=0.95;entryDx=0;entryDy=0;entryPerimeter=0;" parent="WIyWlLk6GJQsqaUBKTNV-1" source="BOVRHx7QbLtc-t8j4IWU-192" target="BOVRHx7QbLtc-t8j4IWU-159" edge="1">
          <mxGeometry relative="1" as="geometry">
            <Array as="points">
              <mxPoint x="285" y="1031" />
              <mxPoint x="372" y="1031" />
            </Array>
          </mxGeometry>
        </mxCell>
        <mxCell id="BOVRHx7QbLtc-t8j4IWU-194" style="edgeStyle=orthogonalEdgeStyle;rounded=0;orthogonalLoop=1;jettySize=auto;html=1;exitX=1;exitY=0.5;exitDx=0;exitDy=0;entryX=0.15;entryY=0.95;entryDx=0;entryDy=0;entryPerimeter=0;" parent="WIyWlLk6GJQsqaUBKTNV-1" source="BOVRHx7QbLtc-t8j4IWU-159" target="BOVRHx7QbLtc-t8j4IWU-143" edge="1">
          <mxGeometry relative="1" as="geometry" />
        </mxCell>
        <mxCell id="BOVRHx7QbLtc-t8j4IWU-198" style="edgeStyle=orthogonalEdgeStyle;rounded=0;orthogonalLoop=1;jettySize=auto;html=1;exitX=1;exitY=0.5;exitDx=0;exitDy=0;entryX=0.5;entryY=1;entryDx=0;entryDy=0;" parent="WIyWlLk6GJQsqaUBKTNV-1" source="BOVRHx7QbLtc-t8j4IWU-195" target="BOVRHx7QbLtc-t8j4IWU-197" edge="1">
          <mxGeometry relative="1" as="geometry">
            <Array as="points">
              <mxPoint x="285" y="1121" />
              <mxPoint x="385" y="1121" />
            </Array>
          </mxGeometry>
        </mxCell>
        <mxCell id="BOVRHx7QbLtc-t8j4IWU-202" value="" style="edgeStyle=orthogonalEdgeStyle;rounded=0;orthogonalLoop=1;jettySize=auto;html=1;" parent="WIyWlLk6GJQsqaUBKTNV-1" source="BOVRHx7QbLtc-t8j4IWU-195" target="BOVRHx7QbLtc-t8j4IWU-201" edge="1">
          <mxGeometry relative="1" as="geometry" />
        </mxCell>
        <mxCell id="BOVRHx7QbLtc-t8j4IWU-195" value="Carga de llaves" style="whiteSpace=wrap;html=1;rounded=0;" parent="WIyWlLk6GJQsqaUBKTNV-1" vertex="1">
          <mxGeometry x="165" y="1101" width="120" height="60" as="geometry" />
        </mxCell>
        <mxCell id="BOVRHx7QbLtc-t8j4IWU-200" style="edgeStyle=orthogonalEdgeStyle;rounded=0;orthogonalLoop=1;jettySize=auto;html=1;exitX=1;exitY=0.5;exitDx=0;exitDy=0;entryX=0.5;entryY=1;entryDx=0;entryDy=0;" parent="WIyWlLk6GJQsqaUBKTNV-1" source="BOVRHx7QbLtc-t8j4IWU-197" target="BOVRHx7QbLtc-t8j4IWU-143" edge="1">
          <mxGeometry relative="1" as="geometry" />
        </mxCell>
        <mxCell id="BOVRHx7QbLtc-t8j4IWU-197" value="Fecha&amp;nbsp; de&amp;nbsp;&lt;div&gt;&lt;span style=&quot;background-color: transparent; color: light-dark(rgb(0, 0, 0), rgb(255, 255, 255));&quot;&gt;envio y carga de&amp;nbsp;&lt;/span&gt;&lt;/div&gt;&lt;div&gt;&lt;span style=&quot;background-color: transparent; color: light-dark(rgb(0, 0, 0), rgb(255, 255, 255));&quot;&gt;llaves&lt;/span&gt;&lt;/div&gt;" style="shape=parallelogram;perimeter=parallelogramPerimeter;whiteSpace=wrap;html=1;fixedSize=1;" parent="WIyWlLk6GJQsqaUBKTNV-1" vertex="1">
          <mxGeometry x="325" y="1041" width="120" height="60" as="geometry" />
        </mxCell>
        <mxCell id="BOVRHx7QbLtc-t8j4IWU-204" style="edgeStyle=orthogonalEdgeStyle;rounded=0;orthogonalLoop=1;jettySize=auto;html=1;exitX=1;exitY=0.5;exitDx=0;exitDy=0;entryX=0.5;entryY=1;entryDx=0;entryDy=0;" parent="WIyWlLk6GJQsqaUBKTNV-1" source="BOVRHx7QbLtc-t8j4IWU-201" target="BOVRHx7QbLtc-t8j4IWU-203" edge="1">
          <mxGeometry relative="1" as="geometry" />
        </mxCell>
        <mxCell id="BOVRHx7QbLtc-t8j4IWU-210" value="" style="edgeStyle=orthogonalEdgeStyle;rounded=0;orthogonalLoop=1;jettySize=auto;html=1;" parent="WIyWlLk6GJQsqaUBKTNV-1" source="BOVRHx7QbLtc-t8j4IWU-201" target="BOVRHx7QbLtc-t8j4IWU-209" edge="1">
          <mxGeometry relative="1" as="geometry" />
        </mxCell>
        <mxCell id="BOVRHx7QbLtc-t8j4IWU-201" value="Envio de vuelta a oficina correspondiente" style="whiteSpace=wrap;html=1;rounded=0;" parent="WIyWlLk6GJQsqaUBKTNV-1" vertex="1">
          <mxGeometry x="165" y="1191" width="120" height="60" as="geometry" />
        </mxCell>
        <mxCell id="BOVRHx7QbLtc-t8j4IWU-203" value="Fecha&amp;nbsp; de&amp;nbsp;&lt;div&gt;&lt;span style=&quot;background-color: transparent; color: light-dark(rgb(0, 0, 0), rgb(255, 255, 255));&quot;&gt;envio a oficina correspondiente&lt;/span&gt;&lt;/div&gt;" style="shape=parallelogram;perimeter=parallelogramPerimeter;whiteSpace=wrap;html=1;fixedSize=1;" parent="WIyWlLk6GJQsqaUBKTNV-1" vertex="1">
          <mxGeometry x="318" y="1141" width="120" height="60" as="geometry" />
        </mxCell>
        <mxCell id="BOVRHx7QbLtc-t8j4IWU-212" style="edgeStyle=orthogonalEdgeStyle;rounded=0;orthogonalLoop=1;jettySize=auto;html=1;exitX=1;exitY=0.5;exitDx=0;exitDy=0;entryX=0.5;entryY=1;entryDx=0;entryDy=0;" parent="WIyWlLk6GJQsqaUBKTNV-1" source="BOVRHx7QbLtc-t8j4IWU-209" target="BOVRHx7QbLtc-t8j4IWU-211" edge="1">
          <mxGeometry relative="1" as="geometry" />
        </mxCell>
        <mxCell id="BOVRHx7QbLtc-t8j4IWU-209" value="&lt;font style=&quot;font-size: 24px;&quot;&gt;Cerra ticket&lt;/font&gt;" style="rounded=1;whiteSpace=wrap;html=1;strokeColor=none;" parent="WIyWlLk6GJQsqaUBKTNV-1" vertex="1">
          <mxGeometry x="160" y="1291" width="130" height="60" as="geometry" />
        </mxCell>
        <mxCell id="BOVRHx7QbLtc-t8j4IWU-214" value="" style="edgeStyle=orthogonalEdgeStyle;rounded=0;orthogonalLoop=1;jettySize=auto;html=1;" parent="WIyWlLk6GJQsqaUBKTNV-1" source="BOVRHx7QbLtc-t8j4IWU-211" target="BOVRHx7QbLtc-t8j4IWU-213" edge="1">
          <mxGeometry relative="1" as="geometry" />
        </mxCell>
        <mxCell id="BOVRHx7QbLtc-t8j4IWU-211" value="Fecha&amp;nbsp; de&amp;nbsp;&lt;div&gt;cierre ticket&lt;/div&gt;" style="shape=parallelogram;perimeter=parallelogramPerimeter;whiteSpace=wrap;html=1;fixedSize=1;" parent="WIyWlLk6GJQsqaUBKTNV-1" vertex="1">
          <mxGeometry x="309" y="1231" width="120" height="60" as="geometry" />
        </mxCell>
        <mxCell id="BOVRHx7QbLtc-t8j4IWU-216" value="" style="edgeStyle=orthogonalEdgeStyle;rounded=0;orthogonalLoop=1;jettySize=auto;html=1;" parent="WIyWlLk6GJQsqaUBKTNV-1" source="BOVRHx7QbLtc-t8j4IWU-213" target="BOVRHx7QbLtc-t8j4IWU-215" edge="1">
          <mxGeometry relative="1" as="geometry" />
        </mxCell>
        <mxCell id="BOVRHx7QbLtc-t8j4IWU-213" value="" style="ellipse;whiteSpace=wrap;html=1;aspect=fixed;fillColor=#000000;" parent="WIyWlLk6GJQsqaUBKTNV-1" vertex="1">
          <mxGeometry x="457" y="1246" width="30" height="30" as="geometry" />
        </mxCell>
        <mxCell id="BOVRHx7QbLtc-t8j4IWU-215" value="Estatus cierre" style="shape=parallelogram;perimeter=parallelogramPerimeter;whiteSpace=wrap;html=1;fixedSize=1;" parent="WIyWlLk6GJQsqaUBKTNV-1" vertex="1">
          <mxGeometry x="515" y="1231" width="120" height="60" as="geometry" />
        </mxCell>
        <mxCell id="BOVRHx7QbLtc-t8j4IWU-219" style="edgeStyle=orthogonalEdgeStyle;rounded=0;orthogonalLoop=1;jettySize=auto;html=1;exitX=0.75;exitY=0;exitDx=0;exitDy=0;entryX=0.85;entryY=0.95;entryDx=0;entryDy=0;entryPerimeter=0;" parent="WIyWlLk6GJQsqaUBKTNV-1" source="BOVRHx7QbLtc-t8j4IWU-215" target="BOVRHx7QbLtc-t8j4IWU-143" edge="1">
          <mxGeometry relative="1" as="geometry" />
        </mxCell>
      </root>
    </mxGraphModel>
  </diagram>
</mxfile>
